<svg width="272" height="273" xmlns="http://www.w3.org/2000/svg" xmlns:xlink="http://www.w3.org/1999/xlink" xml:space="preserve" overflow="hidden"><g transform="translate(-284 -358)"><path d="M781.861 221.662C792.714 210.81 810.308 210.81 821.16 221.662L899.758 300.257C910.604 311.109 910.604 328.704 899.758 339.556L770.824 468.486C759.972 479.339 742.377 479.339 731.526 468.486L652.93 389.892C642.079 379.04 642.079 361.445 652.93 350.594Z" stroke="#615249" stroke-width="8.39506" stroke-miterlimit="8" fill="#FFFFFF" fill-rule="evenodd" transform="matrix(1 0 0 1.00368 -356.543 148.194)"/><path d="M788.755 214.768C795.8 207.724 807.221 207.724 814.266 214.768L906.65 307.151C913.693 314.195 913.693 325.617 906.65 332.661L855.633 383.68C848.59 390.725 837.164 390.725 830.12 383.68L737.737 291.298C730.692 284.253 730.692 272.832 737.737 265.787Z" fill="#615249" fill-rule="evenodd" transform="matrix(1 0 0 1.00368 -356.543 148.194)"/><path d="M758.507 246.178 875.236 362.91 794.179 443.97 677.447 327.239Z" fill="#615249" fill-rule="evenodd" transform="matrix(1 0 0 1.00368 -356.543 148.194)"/></g></svg>