<svg xmlns="http://www.w3.org/2000/svg" xmlns:xlink="http://www.w3.org/1999/xlink" xml:space="preserve" overflow="hidden" viewBox="103.37 41.4 250.25 386.4"><g transform="translate(-1030 -36)"><path d="M71.0417 29.1271 92.3542 29.1271 92.3542 312.583 71.0417 312.583Z" fill="#615249" transform="matrix(1.25806 0 0 1 1044 115)"/><path d="M237.99 134.979 138.531 134.979 138.531 113.667 237.99 113.667 237.99 134.979ZM216.677 170.5 161.62 170.5 161.62 156.292 216.677 156.292 216.677 170.5ZM255.75 28.4167 106.562 29.1271 106.562 312.583 255.75 312.583C263.565 312.583 269.958 306.19 269.958 298.375L269.958 42.625C269.958 34.8104 263.565 28.4167 255.75 28.4167Z" fill="#615249" transform="matrix(1.25806 0 0 1 1044 115)"/><path d="M1195 213 1365 213 1365 358 1195 358Z" fill="#615249"/><text fill="#FFFFFF" font-family="Comic Sans MS,Comic Sans MS_MSFontService,sans-serif" font-weight="400" font-size="277" transform="translate(1196.6 383)">C</text></g></svg>