<svg width="267" height="265" xmlns="http://www.w3.org/2000/svg" xmlns:xlink="http://www.w3.org/1999/xlink" xml:space="preserve" overflow="hidden"><defs><clipPath id="clip0"><rect x="710" y="433" width="267" height="265"/></clipPath></defs><g clip-path="url(#clip0)" transform="translate(-710 -433)"><path d="M0 200.245 0 93.2299C-1.36889e-14 41.7405 41.7405-1.3689e-14 93.2299-2.73779e-14L93.2316 0C144.721-2.73779e-14 186.462 41.7405 186.462 93.2299L186.462 102.053 215.043 102.053 164.982 168.732 114.921 102.053 143.503 102.053 143.503 93.2299C143.503 65.4657 120.996 42.9584 93.2313 42.9584L93.2299 42.9586C65.4657 42.9586 42.9584 65.466 42.9584 93.2302L42.9586 200.245Z" fill="#615249" fill-rule="evenodd" transform="matrix(-0.707107 -0.707107 -0.707107 0.707107 990.56 551.298)"/></g></svg>